<svg xmlns="http://www.w3.org/2000/svg" viewBox="0 0 400 300">
  <!-- Background -->
  <rect width="400" height="300" fill="#1F2937" rx="20" />
  
  <!-- Dashboard panel -->
  <rect x="50" y="50" width="300" height="200" fill="#374151" rx="10" />
  
  <!-- Charts -->
  <rect x="70" y="70" width="120" height="80" fill="#4B5563" rx="6" />
  <!-- Bar chart -->
  <rect x="85" y="120" width="15" height="20" fill="#3B82F6" rx="2" />
  <rect x="110" y="100" width="15" height="40" fill="#6366F1" rx="2" />
  <rect x="135" y="90" width="15" height="50" fill="#8B5CF6" rx="2" />
  <rect x="160" y="110" width="15" height="30" fill="#EC4899" rx="2" />
  
  <!-- Line chart -->
  <rect x="70" y="160" width="120" height="80" fill="#4B5563" rx="6" />
  <polyline points="85,210 110,180 135,200 160,170" stroke="#10B981" stroke-width="3" fill="none" />
  <circle cx="85" cy="210" r="4" fill="#10B981" />
  <circle cx="110" cy="180" r="4" fill="#10B981" />
  <circle cx="135" cy="200" r="4" fill="#10B981" />
  <circle cx="160" cy="170" r="4" fill="#10B981" />
  
  <!-- Stats panels -->
  <rect x="210" y="70" width="120" height="50" fill="#4B5563" rx="6" />
  <rect x="220" y="85" width="60" height="10" fill="#9CA3AF" rx="2" />
  <rect x="220" y="100" width="100" height="10" fill="#6B7280" rx="2" />
  
  <rect x="210" y="130" width="120" height="50" fill="#4B5563" rx="6" />
  <rect x="220" y="145" width="60" height="10" fill="#9CA3AF" rx="2" />
  <rect x="220" y="160" width="100" height="10" fill="#6B7280" rx="2" />
  
  <rect x="210" y="190" width="120" height="50" fill="#4B5563" rx="6" />
  <rect x="220" y="205" width="60" height="10" fill="#9CA3AF" rx="2" />
  <rect x="220" y="220" width="100" height="10" fill="#6B7280" rx="2" />
</svg>
