<svg width="138" height="20" viewBox="0 0 138 20" fill="none" xmlns="http://www.w3.org/2000/svg">
<path d="M15.949 0.55851H0V19.4415H5.99074V12.367H15.5023V8.1117H5.99074V4.92021H15.949V0.55851Z" fill="#111111"/>
<path d="M35.7231 0.55851H29.7324V11.9415C29.7324 14.2021 28.55 14.9734 26.7108 14.9734C26.1852 14.9734 25.6072 14.9202 25.0817 14.8404V19.4947C25.9225 19.6808 27.21 19.7872 28.3924 19.7872C32.7803 19.7872 35.7231 17.8723 35.7231 13.2181V0.55851Z" fill="#111111"/>
<path d="M63.5398 19.4415V18.1383H51.8999V0.55851H50.4285V19.4415H63.5398Z" fill="#111111"/>
<path d="M89.5483 19.4415L81.0351 0.55851H79.5637L71.0769 19.4415H72.6534L74.9919 14.0957H85.6333L87.9718 19.4415H89.5483ZM79.4061 4.06915C79.8265 3.08511 80.063 2.5 80.2732 1.91489H80.3257C80.5622 2.5 80.7987 3.08511 81.2191 4.06915L85.0553 12.8191H75.5699L79.4061 4.06915Z" fill="#111111"/>
<path d="M109.598 9.65425C112.042 9.25532 113.066 7.42021 113.066 5.37234C113.066 3.03191 111.726 0.55851 107.26 0.55851H98.221V19.4415H107.444C112.015 19.4415 113.513 17.0745 113.513 14.2819C113.513 11.8085 112.304 10 109.598 9.65425ZM107.181 1.8617C110.728 1.8617 111.569 3.69681 111.569 5.45213C111.569 7.12766 110.912 9.09574 107.312 9.09574H99.7186V1.8617H107.181ZM99.7186 18.1383V10.3723H107.47C110.859 10.3723 112.015 11.9947 112.015 14.2287C112.015 16.4362 110.912 18.1383 107.338 18.1383H99.7186Z" fill="#111111"/>
<path d="M130.276 20C135.137 20 137.87 18.0851 137.87 14.6011C137.87 11.383 136.057 10 132.352 9.3883L128.121 8.75C125.152 8.24468 123.944 7.12766 123.944 5.05319C123.944 2.65957 125.993 1.2766 129.593 1.2766C133.534 1.2766 135.636 2.76596 136.083 6.14362L137.633 5.87766C137.108 1.80851 134.296 0 129.619 0C125.047 0 122.367 1.91489 122.367 5.15957C122.367 7.92553 124.101 9.52128 127.438 10.0532L131.747 10.6915C134.953 11.1968 136.319 12.1809 136.319 14.734C136.319 17.367 134.165 18.6968 130.329 18.6968C125.914 18.6968 123.576 16.7287 123.129 13.3511L121.553 13.5372C122.104 17.6862 124.942 20 130.276 20Z" fill="#111111"/>
</svg>
